<svg id="Camada_1" data-name="Camada 1" xmlns="http://www.w3.org/2000/svg" xmlns:xlink="http://www.w3.org/1999/xlink" viewBox="0 0 490.82 453.68"><defs><style>.cls-1,.cls-10,.cls-11,.cls-12,.cls-13,.cls-14,.cls-15,.cls-16,.cls-17,.cls-18,.cls-2,.cls-3,.cls-4,.cls-5,.cls-6,.cls-7,.cls-8,.cls-9{fill:none;stroke-miterlimit:10;stroke-width:5px;}.cls-1{stroke:url(#Gradiente_sem_nome_9);}.cls-2{stroke:url(#Gradiente_sem_nome_9-2);}.cls-3{stroke:url(#Gradiente_sem_nome_9-3);}.cls-4{stroke:url(#Gradiente_sem_nome_9-4);}.cls-5{stroke:url(#Gradiente_sem_nome_9-5);}.cls-6{stroke:url(#Gradiente_sem_nome_9-6);}.cls-7{stroke:url(#Gradiente_sem_nome_9-7);}.cls-8{stroke:url(#Gradiente_sem_nome_9-8);}.cls-9{stroke:url(#Gradiente_sem_nome_9-9);}.cls-10{stroke:url(#Gradiente_sem_nome_9-10);}.cls-11{stroke:url(#Gradiente_sem_nome_9-11);}.cls-12{stroke:url(#Gradiente_sem_nome_9-12);}.cls-13{stroke:url(#Gradiente_sem_nome_9-13);}.cls-14{stroke:url(#Gradiente_sem_nome_9-14);}.cls-15{stroke:url(#Gradiente_sem_nome_9-16);}.cls-16{stroke:url(#Gradiente_sem_nome_9-17);}.cls-17{stroke:url(#Gradiente_sem_nome_9-18);}.cls-18{stroke:url(#Gradiente_sem_nome_9-19);}</style><linearGradient id="Gradiente_sem_nome_9" x1="-392.69" y1="760.25" x2="-36.51" y2="760.25" gradientTransform="translate(1010.5 416.5) rotate(90)" gradientUnits="userSpaceOnUse"><stop offset="0" stop-color="#ee690e"/><stop offset="1" stop-color="#feba65"/></linearGradient><linearGradient id="Gradiente_sem_nome_9-2" x1="-298.44" y1="760.25" x2="60.34" y2="760.25" xlink:href="#Gradiente_sem_nome_9"/><linearGradient id="Gradiente_sem_nome_9-3" x1="-392.69" y1="708.47" x2="60.34" y2="708.47" xlink:href="#Gradiente_sem_nome_9"/><linearGradient id="Gradiente_sem_nome_9-4" x1="-392.69" y1="812.02" x2="60.34" y2="812.02" xlink:href="#Gradiente_sem_nome_9"/><linearGradient id="Gradiente_sem_nome_9-5" x1="-392.69" y1="760.25" x2="60.34" y2="760.25" xlink:href="#Gradiente_sem_nome_9"/><linearGradient id="Gradiente_sem_nome_9-6" x1="-393.34" y1="760.75" x2="-37.16" y2="760.75" xlink:href="#Gradiente_sem_nome_9"/><linearGradient id="Gradiente_sem_nome_9-7" x1="-299.1" y1="760.75" x2="59.69" y2="760.75" xlink:href="#Gradiente_sem_nome_9"/><linearGradient id="Gradiente_sem_nome_9-8" x1="-393.34" y1="708.98" x2="59.69" y2="708.98" xlink:href="#Gradiente_sem_nome_9"/><linearGradient id="Gradiente_sem_nome_9-9" x1="-393.34" y1="812.53" x2="59.69" y2="812.53" xlink:href="#Gradiente_sem_nome_9"/><linearGradient id="Gradiente_sem_nome_9-10" x1="-393.34" y1="760.75" x2="59.69" y2="760.75" xlink:href="#Gradiente_sem_nome_9"/><linearGradient id="Gradiente_sem_nome_9-11" x1="-336.57" y1="761.22" x2="1.39" y2="761.22" xlink:href="#Gradiente_sem_nome_9"/><linearGradient id="Gradiente_sem_nome_9-12" x1="-336.57" y1="760.93" x2="2.68" y2="760.93" xlink:href="#Gradiente_sem_nome_9"/><linearGradient id="Gradiente_sem_nome_9-13" x1="-336.57" y1="760.22" x2="2.68" y2="760.22" xlink:href="#Gradiente_sem_nome_9"/><linearGradient id="Gradiente_sem_nome_9-14" x1="-336.02" y1="760.93" x2="2.68" y2="760.93" xlink:href="#Gradiente_sem_nome_9"/><linearGradient id="Gradiente_sem_nome_9-16" x1="-336.7" y1="762.07" x2="1.26" y2="762.07" xlink:href="#Gradiente_sem_nome_9"/><linearGradient id="Gradiente_sem_nome_9-17" x1="-336.7" y1="761.78" x2="2.55" y2="761.78" xlink:href="#Gradiente_sem_nome_9"/><linearGradient id="Gradiente_sem_nome_9-18" x1="-336.7" y1="761.08" x2="2.55" y2="761.08" xlink:href="#Gradiente_sem_nome_9"/><linearGradient id="Gradiente_sem_nome_9-19" x1="-336.15" y1="761.78" x2="2.55" y2="761.78" xlink:href="#Gradiente_sem_nome_9"/></defs><path class="cls-1" d="M250.25,377.49A298.72,298.72,0,0,1,134.8,354.57C81.62,332.36,37.29,295.26,8.05,249c29.53-46.69,74.46-84.08,128.35-106.21,24.1-48.72,64.1-89.32,113.85-116.16C300,53.49,340,94.09,364.11,142.81,418,164.94,462.92,202.33,492.45,249c-29.23,46.24-73.56,83.34-126.75,105.55A298.65,298.65,0,0,1,250.25,377.49Z" transform="translate(-4.59 -23.16)"/><path class="cls-2" d="M250.25,474c-50.87-27.44-91.52-69.27-115.45-119.43C81.62,332.36,37.29,295.26,8.05,249c29.53-46.69,74.46-84.08,128.35-106.21a302.43,302.43,0,0,1,227.71,0C418,164.94,462.92,202.33,492.45,249c-29.23,46.24-73.56,83.34-126.75,105.55C341.78,404.73,301.12,446.56,250.25,474Z" transform="translate(-4.59 -23.16)"/><path class="cls-3" d="M250.25,474c-50.87-27.44-91.52-69.27-115.45-119.43a241.55,241.55,0,0,1,1.6-211.76c24.1-48.72,64.1-89.32,113.85-116.16C300,53.49,340,94.09,364.11,142.81,418,164.94,462.92,202.33,492.45,249c-29.23,46.24-73.56,83.34-126.75,105.55C341.78,404.73,301.12,446.56,250.25,474Z" transform="translate(-4.59 -23.16)"/><path class="cls-4" d="M250.25,474c-50.87-27.44-91.52-69.27-115.45-119.43C81.62,332.36,37.29,295.26,8.05,249c29.53-46.69,74.46-84.08,128.35-106.21,24.1-48.72,64.1-89.32,113.85-116.16C300,53.49,340,94.09,364.11,142.81a241.5,241.5,0,0,1,1.59,211.76C341.78,404.73,301.12,446.56,250.25,474Z" transform="translate(-4.59 -23.16)"/><path class="cls-5" d="M365.7,354.57c53.19-22.21,97.52-59.31,126.75-105.55C462.92,202.33,418,164.94,364.11,142.81,340,94.09,300,53.49,250.25,26.65,200.5,53.49,160.5,94.09,136.4,142.81,82.51,164.94,37.58,202.33,8.05,249c29.24,46.24,73.57,83.34,126.75,105.55,23.93,50.16,64.58,92,115.45,119.43C301.12,446.56,341.78,404.73,365.7,354.57Z" transform="translate(-4.59 -23.16)"/><path class="cls-6" d="M249.75,376.84A298.83,298.83,0,0,1,134.3,353.92C81.11,331.71,36.78,294.6,7.55,248.37,37.08,201.68,82,164.29,135.89,142.15,160,93.44,200,52.84,249.75,26,299.5,52.84,339.5,93.44,363.6,142.15c53.89,22.14,98.82,59.53,128.35,106.22-29.24,46.23-73.57,83.34-126.75,105.55A298.91,298.91,0,0,1,249.75,376.84Z" transform="translate(-4.59 -23.16)"/><path class="cls-7" d="M249.75,473.35c-50.87-27.44-91.53-69.27-115.45-119.43C81.11,331.71,36.78,294.6,7.55,248.37,37.08,201.68,82,164.29,135.89,142.15a302.43,302.43,0,0,1,227.71,0c53.89,22.14,98.82,59.53,128.35,106.22-29.24,46.23-73.57,83.34-126.75,105.55C341.27,404.08,300.62,445.91,249.75,473.35Z" transform="translate(-4.59 -23.16)"/><path class="cls-8" d="M249.75,473.35c-50.87-27.44-91.53-69.27-115.45-119.43a241.52,241.52,0,0,1,1.59-211.77C160,93.44,200,52.84,249.75,26,299.5,52.84,339.5,93.44,363.6,142.15c53.89,22.14,98.82,59.53,128.35,106.22-29.24,46.23-73.57,83.34-126.75,105.55C341.27,404.08,300.62,445.91,249.75,473.35Z" transform="translate(-4.59 -23.16)"/><path class="cls-9" d="M249.75,473.35c-50.87-27.44-91.53-69.27-115.45-119.43C81.11,331.71,36.78,294.6,7.55,248.37,37.08,201.68,82,164.29,135.89,142.15,160,93.44,200,52.84,249.75,26,299.5,52.84,339.5,93.44,363.6,142.15a241.57,241.57,0,0,1,1.6,211.77C341.27,404.08,300.62,445.91,249.75,473.35Z" transform="translate(-4.59 -23.16)"/><path class="cls-10" d="M365.2,353.92C418.38,331.71,462.71,294.6,492,248.37c-29.53-46.69-74.46-84.08-128.35-106.22C339.5,93.44,299.5,52.84,249.75,26,200,52.84,160,93.44,135.89,142.15,82,164.29,37.08,201.68,7.55,248.37,36.78,294.6,81.11,331.71,134.3,353.92c23.92,50.16,64.58,92,115.45,119.43C300.62,445.91,341.27,404.08,365.2,353.92Z" transform="translate(-4.59 -23.16)"/><path class="cls-11" d="M347.44,339.93a282.84,282.84,0,0,1-99.31,59,303.31,303.31,0,0,1-170.46,7.81,241.13,241.13,0,0,1,9.78-158.9,241.12,241.12,0,0,1-8.09-156.5,303.58,303.58,0,0,1,169.43,8.1,303.31,303.31,0,0,1,172.1-8.38,241,241,0,0,1-9.16,157.39C398,281.84,376.61,313.1,347.44,339.93Z" transform="translate(-4.59 -23.16)"/><path class="cls-12" d="M421.19,408.32a303.48,303.48,0,0,1-173.06-9.38,303.31,303.31,0,0,1-170.46,7.81,241.13,241.13,0,0,1,9.78-158.9c13.71-32.81,34.94-63.54,63.67-90a282.46,282.46,0,0,1,97.67-58.44,303.31,303.31,0,0,1,172.1-8.38,241,241,0,0,1-9.16,157.39A241.21,241.21,0,0,1,421.19,408.32Z" transform="translate(-4.59 -23.16)"/><path class="cls-13" d="M421.19,408.32a303.48,303.48,0,0,1-173.06-9.38,282.7,282.7,0,0,1-96.42-58.45C122.4,313.3,101,281.61,87.45,247.85a241.12,241.12,0,0,1-8.09-156.5,303.58,303.58,0,0,1,169.43,8.1,303.31,303.31,0,0,1,172.1-8.38,241,241,0,0,1-9.16,157.39A241.21,241.21,0,0,1,421.19,408.32Z" transform="translate(-4.59 -23.16)"/><path class="cls-14" d="M421.19,408.32a303.48,303.48,0,0,1-173.06-9.38,303.31,303.31,0,0,1-170.46,7.81,241.13,241.13,0,0,1,9.78-158.9,241.12,241.12,0,0,1-8.09-156.5,303.58,303.58,0,0,1,169.43,8.1,282.7,282.7,0,0,1,100,59.73,256.87,256.87,0,0,1,62.89,89.28A241.21,241.21,0,0,1,421.19,408.32Z" transform="translate(-4.59 -23.16)"/><path class="cls-12" d="M411.73,248.46a241,241,0,0,0,9.16-157.39,303.31,303.31,0,0,0-172.1,8.38,303.58,303.58,0,0,0-169.43-8.1,241.12,241.12,0,0,0,8.09,156.5,241.13,241.13,0,0,0-9.78,158.9,303.31,303.31,0,0,0,170.46-7.81,303.48,303.48,0,0,0,173.06,9.38A241.21,241.21,0,0,0,411.73,248.46Z" transform="translate(-4.59 -23.16)"/><path class="cls-15" d="M346.59,339.8a282.76,282.76,0,0,1-99.31,59,303.4,303.4,0,0,1-170.46,7.82,241.07,241.07,0,0,1,9.77-158.9,241.12,241.12,0,0,1-8.08-156.5,303.46,303.46,0,0,1,169.42,8.1A303.31,303.31,0,0,1,420,90.94a241,241,0,0,1-9.15,157.38C397.18,281.7,375.76,313,346.59,339.8Z" transform="translate(-4.59 -23.16)"/><path class="cls-16" d="M420.33,408.18a303.35,303.35,0,0,1-173-9.38,303.4,303.4,0,0,1-170.46,7.82,241.07,241.07,0,0,1,9.77-158.9c13.72-32.81,34.94-63.54,63.67-90a282.68,282.68,0,0,1,97.67-58.43A303.31,303.31,0,0,1,420,90.94a241,241,0,0,1-9.15,157.38A241.15,241.15,0,0,1,420.33,408.18Z" transform="translate(-4.59 -23.16)"/><path class="cls-17" d="M420.33,408.18a303.35,303.35,0,0,1-173-9.38,282.2,282.2,0,0,1-96.42-58.45c-29.32-27.18-50.74-58.87-64.27-92.63a241.12,241.12,0,0,1-8.08-156.5,303.46,303.46,0,0,1,169.42,8.1A303.31,303.31,0,0,1,420,90.94a241,241,0,0,1-9.15,157.38A241.15,241.15,0,0,1,420.33,408.18Z" transform="translate(-4.59 -23.16)"/><path class="cls-18" d="M420.33,408.18a303.35,303.35,0,0,1-173-9.38,303.4,303.4,0,0,1-170.46,7.82,241.07,241.07,0,0,1,9.77-158.9,241.12,241.12,0,0,1-8.08-156.5,303.46,303.46,0,0,1,169.42,8.1A282.61,282.61,0,0,1,348,159.05a256.83,256.83,0,0,1,62.9,89.27A241.15,241.15,0,0,1,420.33,408.18Z" transform="translate(-4.59 -23.16)"/><path class="cls-16" d="M410.88,248.32A241,241,0,0,0,420,90.94a303.31,303.31,0,0,0-172.1,8.38,303.46,303.46,0,0,0-169.42-8.1,241.12,241.12,0,0,0,8.08,156.5,241.07,241.07,0,0,0-9.77,158.9,303.4,303.4,0,0,0,170.46-7.82,303.35,303.35,0,0,0,173,9.38A241.15,241.15,0,0,0,410.88,248.32Z" transform="translate(-4.59 -23.16)"/></svg>